<svg width="700" height="380" xmlns="http://www.w3.org/2000/svg">
  <!-- Arka plan -->
  <rect width="700" height="380" fill="white"/>

  <!-- Ana kablo (üst) -->
  <line x1="80" y1="150" x2="620" y2="150" stroke="black" stroke-width="2.5"/>

  <!-- Voltaj kaynağı (V_in) -->
  <circle cx="80" cy="150" r="28" fill="none" stroke="black" stroke-width="2.5"/>
  <text x="80" y="158" font-size="16" font-weight="bold" text-anchor="middle">+</text>
  <text x="80" y="195" font-size="13" text-anchor="middle" font-weight="bold">V_in(t)</text>

  <!-- Direnç R (kare kutu) -->
  <rect x="140" y="128" width="50" height="44" fill="white" stroke="black" stroke-width="2.5" rx="2"/>
  <text x="165" y="159" font-size="16" font-weight="bold" text-anchor="middle">R</text>

  <!-- Bobin L (sarmal) -->
  <g id="coil">
    <path d="M 260 150 Q 272 132 284 150 Q 296 168 308 150"
          fill="none" stroke="black" stroke-width="2.5" stroke-linecap="round"/>
  </g>
  <text x="284" y="195" font-size="16" font-weight="bold" text-anchor="middle">L</text>

  <!-- Kondansatör C (iki paralel çizgi) -->
  <line x1="375" y1="120" x2="375" y2="180" stroke="black" stroke-width="2.5"/>
  <line x1="390" y1="120" x2="390" y2="180" stroke="black" stroke-width="2.5"/>
  <text x="382" y="205" font-size="16" font-weight="bold" text-anchor="middle">C</text>

  <!-- Çıkış V_c (sağ üst) -->
  <text x="620" y="135" font-size="13" font-weight="bold">V_c</text>

  <!-- Alt kablo (GND) -->
  <line x1="80" y1="260" x2="620" y2="260" stroke="black" stroke-width="2.5"/>

  <!-- Dikey bağlantılar -->
  <line x1="80" y1="178" x2="80" y2="260" stroke="black" stroke-width="2.5"/>
  <line x1="620" y1="150" x2="620" y2="260" stroke="black" stroke-width="2.5"/>

  <!-- Ara bağlantı kabloları -->
  <line x1="190" y1="150" x2="260" y2="150" stroke="black" stroke-width="2.5"/>
  <line x1="308" y1="150" x2="375" y2="150" stroke="black" stroke-width="2.5"/>
  <line x1="390" y1="150" x2="620" y2="150" stroke="black" stroke-width="2.5"/>

  <!-- GND sembolü (üç çizgi) -->
  <line x1="350" y1="260" x2="350" y2="280" stroke="black" stroke-width="2.5"/>
  <line x1="330" y1="280" x2="370" y2="280" stroke="black" stroke-width="2.5"/>
  <line x1="340" y1="290" x2="360" y2="290" stroke="black" stroke-width="2.5"/>
  <line x1="345" y1="300" x2="355" y2="300" stroke="black" stroke-width="2.5"/>
  <text x="350" y="325" font-size="12" font-weight="bold" text-anchor="middle">GND</text>

  <!-- Düğüm noktaları (siyah daireler) -->
  <circle cx="165" cy="150" r="3.5" fill="black"/>
  <circle cx="260" cy="150" r="3.5" fill="black"/>
  <circle cx="308" cy="150" r="3.5" fill="black"/>
  <circle cx="375" cy="150" r="3.5" fill="black"/>
  <circle cx="390" cy="150" r="3.5" fill="black"/>

  <!-- Başlık -->
  <text x="350" y="30" font-size="18" font-weight="bold" text-anchor="middle">RLC Seri Devresi</text>

  <!-- Açıklama metni -->
  <text x="350" y="360" font-size="11" text-anchor="middle" fill="#666">KVL: v_in = v_R + v_L + v_C</text>
</svg>